# xmcd
#
# Track frame offsets:
#	150
#	22592
#	39538
#	51904
#	66187
#	79242
#	100555
#	115533
#	129871
#	149627
#	166883
#	183846
#	198614
#	219346
#	232029
#	248473
#
# Disc length: 3666 seconds
#
# Revision: 0
# Processed by: cddbd v1.5.1PL0 Copyright (c) Steve Scherf et al.
# Submitted via: dBpowerAMP V4.0
#
DISCID=cd0e5010
DTITLE=MBB - MBB
DYEAR=2004
DGENRE=Blues
TTITLE0=Tända ett ljus
TTITLE1=Jag ser fram emot den dagen
TTITLE2=När hjulen snurrar
TTITLE3=Därför står jag här och glor
TTITLE4=Det är för sent
TTITLE5=En kammare i hjärtat
TTITLE6=Novembernatten
TTITLE7=Så ser det ut nu
TTITLE8=Förbud
TTITLE9=Schack matt
TTITLE10=Han hann han
TTITLE11=Buffeljanne
TTITLE12=Blir dig givet
TTITLE13=Det kan va dumt
TTITLE14=Luffaren
TTITLE15=Det är inte rätt
EXTD=Swedish Blues by Mönsterås Blues Band
EXTT0=
EXTT1=
EXTT2=
EXTT3=
EXTT4=
EXTT5=
EXTT6=
EXTT7=
EXTT8=
EXTT9=
EXTT10=
EXTT11=
EXTT12=
EXTT13=
EXTT14=
EXTT15=
PLAYORDER=
